<svg width="311" height="155" viewBox="0 0 311 155" fill="none" xmlns="http://www.w3.org/2000/svg">
<path d="M3.25 5.25003L0.750004 0.750031C8.08334 2.58336 21.95 6.25003 18.75 6.25003C15.55 6.25003 7.08334 5.58336 3.25 5.25003Z" fill="black"/>
<path d="M12.75 65.75C9.55 65.35 5.75 61.9167 4.25 60.25C7.41667 60.5834 13.85 61.45 14.25 62.25C14.65 63.05 18.0833 63.9167 19.75 64.25C18.75 64.9167 15.95 66.15 12.75 65.75Z" fill="black"/>
<path d="M108.75 151.75C105.15 150.15 105.917 143.417 106.75 140.25C110.75 147.85 115.083 152.083 116.75 153.25C115.583 153.417 112.35 153.35 108.75 151.75Z" fill="black"/>
<path d="M218.25 120.75C220.25 116.35 227.417 114.917 230.75 114.75C231.916 121.358 220.901 124.724 214.772 125.673C214.545 125.776 214.369 125.79 214.25 125.75C214.42 125.726 214.594 125.701 214.772 125.673C215.494 125.344 216.727 124.1 218.25 120.75Z" fill="black"/>
<path d="M250.25 87.75C248.65 86.55 247.25 83.9167 246.75 82.75C247.75 82.9167 250.25 83.35 252.25 83.75C254.75 84.25 255.75 92.25 254.75 90.25C253.75 88.25 252.25 89.25 250.25 87.75Z" fill="black"/>
<path d="M291.75 57.75L290.75 54.25C295.55 55.85 299.417 55.9167 300.75 55.75L310.25 62.25C299.45 62.25 293.417 59.25 291.75 57.75Z" fill="black"/>
<path d="M295.75 52.25C291.35 51.45 287.917 52.25 286.75 52.75C289.95 48.35 295.75 47.9167 298.25 48.25L295.75 52.25Z" fill="black"/>
<path d="M261.75 70.25L262.75 59.75C265.15 64.95 267.417 71.25 268.25 73.75L261.75 70.25Z" fill="black"/>
<path d="M3.25 5.25003L0.750004 0.750031C8.08334 2.58336 21.95 6.25003 18.75 6.25003C15.55 6.25003 7.08334 5.58336 3.25 5.25003Z" stroke="white" stroke-width="1.5" stroke-linecap="round" stroke-linejoin="round"/>
<path d="M12.75 65.75C9.55 65.35 5.75 61.9167 4.25 60.25C7.41667 60.5834 13.85 61.45 14.25 62.25C14.65 63.05 18.0833 63.9167 19.75 64.25C18.75 64.9167 15.95 66.15 12.75 65.75Z" stroke="white" stroke-width="1.5" stroke-linecap="round" stroke-linejoin="round"/>
<path d="M108.75 151.75C105.15 150.15 105.917 143.417 106.75 140.25C110.75 147.85 115.083 152.083 116.75 153.25C115.583 153.417 112.35 153.35 108.75 151.75Z" stroke="white" stroke-width="1.5" stroke-linecap="round" stroke-linejoin="round"/>
<path d="M218.25 120.75C220.25 116.35 227.417 114.917 230.75 114.75C231.916 121.358 220.901 124.724 214.772 125.673C214.545 125.776 214.369 125.79 214.25 125.75C214.42 125.726 214.594 125.701 214.772 125.673C215.494 125.344 216.727 124.1 218.25 120.75Z" stroke="white" stroke-width="1.5" stroke-linecap="round" stroke-linejoin="round"/>
<path d="M250.25 87.75C248.65 86.55 247.25 83.9167 246.75 82.75C247.75 82.9167 250.25 83.35 252.25 83.75C254.75 84.25 255.75 92.25 254.75 90.25C253.75 88.25 252.25 89.25 250.25 87.75Z" stroke="white" stroke-width="1.5" stroke-linecap="round" stroke-linejoin="round"/>
<path d="M291.75 57.75L290.75 54.25C295.55 55.85 299.417 55.9167 300.75 55.75L310.25 62.25C299.45 62.25 293.417 59.25 291.75 57.75Z" stroke="white" stroke-width="1.5" stroke-linecap="round" stroke-linejoin="round"/>
<path d="M295.75 52.25C291.35 51.45 287.917 52.25 286.75 52.75C289.95 48.35 295.75 47.9167 298.25 48.25L295.75 52.25Z" stroke="white" stroke-width="1.5" stroke-linecap="round" stroke-linejoin="round"/>
<path d="M261.75 70.25L262.75 59.75C265.15 64.95 267.417 71.25 268.25 73.75L261.75 70.25Z" stroke="white" stroke-width="1.5" stroke-linecap="round" stroke-linejoin="round"/>
</svg>
