<svg width="160" height="240" viewBox="0 0 160 240" fill="none" xmlns="http://www.w3.org/2000/svg">
<rect width="160" height="240" rx="16" fill="white"/>
<path d="M90.3594 77.1586C90.9117 78.1152 92.1348 78.4429 93.0914 77.8906C93.697 77.541 94.0506 76.9225 94.0884 76.2729L91.0914 74.4265C90.1348 74.9788 89.8071 76.202 90.3594 77.1586Z" fill="#1A1A1A"/>
<path d="M125.249 87.5731C125.188 87.5735 123.268 87.6709 121.645 87.3768" stroke="#1A1A1A" stroke-width="2" stroke-linecap="round" stroke-linejoin="round"/>
<path d="M41.8141 186.086C48.8467 189.459 65.4052 172.242 72.8054 163.211L49.2341 163.3C26.6894 186.341 27.2693 189.107 29.442 189.563C26.3679 192.667 22.4791 197.166 22.4791 197.166C19.4979 200.622 18.6092 202.167 20.2236 202.294C22.7923 202.496 35.2745 191.641 41.8141 186.086Z" fill="white"/>
<path d="M41.8141 186.086C48.8467 189.459 65.4052 172.242 72.8054 163.211L49.2341 163.3C26.6894 186.341 27.2693 189.107 29.442 189.563M41.8141 186.086L58.7486 171.229M41.8141 186.086C35.2745 191.641 22.7923 202.496 20.2236 202.294C18.6092 202.167 19.4979 200.622 22.4791 197.166C22.4791 197.166 26.3679 192.667 29.442 189.563M44.6008 175.248C39.3096 179.83 33.8173 185.147 29.442 189.563" stroke="#1A1A1A" stroke-width="2" stroke-linecap="round" stroke-linejoin="round"/>
<mask id="path-6-inside-1_925_3193" fill="white">
<path d="M32.8359 159.768H136.86V168.744H32.8359V159.768Z"/>
</mask>
<path d="M32.8359 159.768H136.86V168.744H32.8359V159.768Z" fill="#FF9A42"/>
<path d="M32.8359 159.768V161.768H136.86V159.768V157.768H32.8359V159.768ZM136.86 168.744V166.744H32.8359V168.744V170.744H136.86V168.744Z" fill="#1A1A1A" mask="url(#path-6-inside-1_925_3193)"/>
<path d="M59.6451 152.921C58.3379 155.1 54.2277 158.844 52.3359 160.444H75.2946M59.6451 152.921C56.9372 154.371 50.5164 157.435 46.4961 158.092C47.3878 156.998 48.5023 155.566 49.7131 153.866C50.2381 150.058 55.8821 146.272 60.3871 130.387C60.5144 129.938 60.5564 129.416 60.7332 127.785C60.7332 120.957 63.7795 114.635 70.427 107.041M59.6451 152.921L70.1371 147.738L79.3752 142.355C79.3752 142.355 82.3516 140.345 83.3234 139.498C95.0891 129.246 90.9089 115.823 86.8792 109.527M103.801 66.0949C109.953 70.2433 116.146 77.8166 119.687 90.5492C120.518 93.5375 121.154 96.1106 121.661 99.0023M74.6156 75.4252C74.6034 73.2844 75.3718 71.1176 77.0001 68.8726C80.4643 64.0965 86.5369 62.3761 86.5369 62.3761C86.5369 62.3761 94.9956 59.0058 104.998 61.7774C109.817 63.5173 115.805 66.5807 117.594 75.1523C117.914 78.0447 121.272 83.9485 132.148 84.4235C129.439 84.8988 123.252 85.4046 120.174 83.6255M82.6151 88.6099C83.1911 89.6426 85.6252 91.6071 90.934 92.0196M92.876 92.0966C92.1898 92.0938 91.543 92.0669 90.934 92.0196M90.934 92.0196C85.9492 93.0859 75.233 97.0879 72.2468 104.566" stroke="#1A1A1A" stroke-width="2" stroke-linecap="round" stroke-linejoin="round"/>
<circle cx="100.697" cy="83.8027" r="6.60547" fill="#FF9A42" fill-opacity="0.2"/>
<path d="M100.602 93.2748C99.6928 93.6488 97.3242 94.1661 95.1237 93.2432C95.9171 94.2712 98.1234 95.7169 100.602 93.2748Z" fill="#1A1A1A" stroke="#1A1A1A" stroke-linejoin="round"/>
<path d="M115.376 79.7425C115.335 79.8541 114.869 83.5814 110.681 85.9584" stroke="#1A1A1A" stroke-width="2" stroke-linecap="round" stroke-linejoin="round"/>
<path d="M91.9605 100.004C91.869 100.08 89.5923 103.068 84.7766 103.016" stroke="#1A1A1A" stroke-width="2" stroke-linecap="round" stroke-linejoin="round"/>
<path d="M99.8614 115.316C99.9724 115.274 103.087 113.174 107.632 114.768" stroke="#1A1A1A" stroke-width="2" stroke-linecap="round" stroke-linejoin="round"/>
<path d="M100.434 112.456C100.512 112.424 102.728 110.958 105.788 111.815" stroke="#1A1A1A" stroke-width="2" stroke-linecap="round" stroke-linejoin="round"/>
<path d="M81.1035 101.071C81.0506 101.126 79.1677 102.66 78.4818 104.959" stroke="#1A1A1A" stroke-width="2" stroke-linecap="round" stroke-linejoin="round"/>
<path d="M89.8577 79.031C89.8336 79.0044 89.0085 78.2151 88.583 77.2881" stroke="#1A1A1A" stroke-width="2" stroke-linecap="round" stroke-linejoin="round"/>
<path d="M117.018 96.1006C116.881 96.0948 111.52 98.1757 108.699 93.8958" stroke="#1A1A1A" stroke-width="2" stroke-linecap="round" stroke-linejoin="round"/>
<path d="M82.3057 117.151C82.168 117.11 76.3919 118.93 74.2832 111.921" stroke="#1A1A1A" stroke-width="2" stroke-linecap="round" stroke-linejoin="round"/>
<path d="M87.5897 122.231C87.4595 122.194 82.0197 123.719 79.9939 117.605" stroke="#1A1A1A" stroke-width="2" stroke-linecap="round" stroke-linejoin="round"/>
<path d="M80.5248 126.151C80.3967 126.158 75.8983 128.976 72.3708 124.499" stroke="#1A1A1A" stroke-width="2" stroke-linecap="round" stroke-linejoin="round"/>
<path d="M68.8557 129.14C68.7466 129.163 65.5337 132.363 60.95 127.825" stroke="#1A1A1A" stroke-width="2" stroke-linecap="round" stroke-linejoin="round"/>
<path d="M89.1834 131.082C88.9764 131.055 80.6921 132.501 76.8173 127.456" stroke="#1A1A1A" stroke-width="2" stroke-linecap="round" stroke-linejoin="round"/>
<path d="M90.7161 126.497C90.622 126.468 86.6617 127.86 85.2465 122.681" stroke="#1A1A1A" stroke-width="2" stroke-linecap="round" stroke-linejoin="round"/>
<path d="M121.678 99.0406C121.548 99.0337 116.511 101.161 113.825 96.6936" stroke="#1A1A1A" stroke-width="2" stroke-linecap="round" stroke-linejoin="round"/>
<path d="M118.186 86.3438C118.17 86.3776 118.073 87.5352 116.128 88.1391" stroke="#1A1A1A" stroke-width="2" stroke-linecap="round" stroke-linejoin="round"/>
<path d="M79.9495 129.969C78.5797 132.517 74.0617 138.892 66.9473 144.01" stroke="#1A1A1A" stroke-width="2" stroke-linecap="round" stroke-linejoin="round"/>
<path d="M65.4492 135.559C64.5197 139.649 60.0603 149.101 49.6582 154.189" stroke="#1A1A1A" stroke-width="2" stroke-linecap="round" stroke-linejoin="round"/>
<path d="M79.4162 90.4081C79.6135 87.4049 82.1403 83.6598 83.1288 82.754H79.322L75.2322 79.9609C75.1288 82.2929 76.4476 88.9353 79.4162 90.4081Z" fill="#1A1A1A" stroke="#1A1A1A" stroke-width="2" stroke-linejoin="round"/>
<path d="M75.3327 81.1739C77.0838 82.5708 80.3265 83.3474 81.8726 84.0229C82.7804 84.4195 86.0578 83.8208 85.0154 81.2119C83.9186 78.4665 79.5008 77.5756 76.9017 78.086C75.7095 78.3202 73.8449 79.7701 75.3327 81.1739Z" fill="#1A1A1A" stroke="#1A1A1A" stroke-width="2"/>
<path d="M79.2847 80.1001C79.6244 80.3711 80.2534 80.5218 80.5533 80.6528C80.7294 80.7297 81.3652 80.6136 81.163 80.1075C80.9502 79.575 80.0932 79.4021 79.5891 79.5011C79.3578 79.5466 78.9961 79.8278 79.2847 80.1001Z" fill="white"/>
<circle cx="65.9805" cy="133.135" r="1.03711" fill="#1A1A1A"/>
<circle cx="47.1504" cy="172.408" r="1.03711" fill="#1A1A1A"/>
<path d="M77.3295 166.404C80.462 166.404 83.0014 163.865 83.0014 160.732C83.0014 157.6 80.462 155.061 77.3295 155.061C74.5896 155.061 72.3034 157.003 71.7734 159.586C74.1272 159.166 78.5338 159.94 77.3295 166.404Z" fill="#1A1A1A"/>
<path d="M82.7123 165.285C85.2249 165.285 87.2617 163.117 87.2617 160.442C87.2617 157.768 85.2249 155.6 82.7123 155.6C80.5147 155.6 78.681 157.258 78.2559 159.464C80.1438 159.105 83.6783 159.766 82.7123 165.285Z" fill="#1A1A1A"/>
<path d="M99.1198 165.133C101.632 165.133 103.669 163.025 103.669 160.426C103.669 157.826 101.632 155.719 99.1198 155.719C96.9221 155.719 95.0599 157.886 94.6348 160.03C96.5227 159.68 100.086 159.768 99.1198 165.133Z" fill="#1A1A1A"/>
<path d="M104.35 166.295C107.416 165.654 109.381 162.648 108.74 159.582C108.098 156.516 105.092 154.55 102.026 155.192C99.3443 155.753 97.5046 158.123 97.5149 160.76C99.7326 159.866 104.204 159.722 104.35 166.295Z" fill="#1A1A1A"/>
<path d="M76.8916 157.119C77.5752 156.837 79.3562 156.448 81.0106 157.142C80.4141 156.369 78.7552 155.282 76.8916 157.119Z" fill="white" stroke="white" stroke-width="0.5" stroke-linejoin="round"/>
<path d="M97.8545 157.355C98.5381 157.074 100.319 156.685 101.974 157.379C101.377 156.606 99.7181 155.519 97.8545 157.355Z" fill="white" stroke="white" stroke-width="0.5" stroke-linejoin="round"/>
<path d="M103.044 157.355C103.728 157.074 105.508 156.685 107.163 157.379C106.566 156.606 104.908 155.519 103.044 157.355Z" fill="white" stroke="white" stroke-width="0.5" stroke-linejoin="round"/>
<path d="M82.5096 157.646C83.0695 157.365 84.5279 156.976 85.8828 157.67C85.3943 156.897 84.0358 155.81 82.5096 157.646Z" fill="white" stroke="white" stroke-width="0.5" stroke-linejoin="round"/>
<path d="M77.8428 159.187C78.5136 158.913 80.2643 158.542 81.8999 159.246C81.3056 158.472 79.6623 157.376 77.8428 159.187Z" fill="white" stroke="white" stroke-width="0.5" stroke-linejoin="round"/>
<path d="M98.7002 159.097C99.3711 158.823 101.122 158.452 102.757 159.157C102.163 158.382 100.52 157.286 98.7002 159.097Z" fill="white" stroke="white" stroke-width="0.5" stroke-linejoin="round"/>
<path d="M103.89 159.097C104.561 158.823 106.311 158.452 107.947 159.157C107.352 158.382 105.709 157.286 103.89 159.097Z" fill="white" stroke="white" stroke-width="0.5" stroke-linejoin="round"/>
<path d="M83.2889 159.714C83.8383 159.44 85.272 159.069 86.6114 159.774C86.1248 158.999 84.779 157.904 83.2889 159.714Z" fill="white" stroke="white" stroke-width="0.5" stroke-linejoin="round"/>
<path d="M123.284 98.875C134.827 114.504 125.616 136.348 117.104 136.859" stroke="#1A1A1A" stroke-width="2" stroke-linecap="round" stroke-linejoin="round"/>
<path d="M109.695 135.559C106.489 141.566 94.1734 154.749 70.0956 152.836" stroke="#1A1A1A" stroke-width="2" stroke-linecap="round"/>
<path d="M104.358 116.986C104.963 118.199 106.396 120.82 107.28 121.594C108.164 122.369 107.561 124.313 107.149 125.189C105.827 128.542 100.032 140.269 89.9791 143.579" stroke="#1A1A1A" stroke-width="2" stroke-linecap="round"/>
<path d="M88.8418 113.072C90.3013 116.051 94.2564 122.449 98.4004 124.205" stroke="#1A1A1A" stroke-width="2" stroke-linecap="round"/>
<path d="M91.3047 123.57C92.1215 124.882 94.3583 127.683 96.7715 128.395" stroke="#1A1A1A" stroke-width="2" stroke-linecap="round"/>
<path d="M121.521 101.845C118.051 115.988 114.594 115.732 113.446 119.46C112.375 122.942 113.911 124.752 114.182 125.121C114.608 125.91 114.012 129.794 111.928 131.992" stroke="#1A1A1A" stroke-width="2" stroke-linecap="round"/>
</svg>
