<svg width="60" height="60" viewBox="0 0 60 60" fill="none" xmlns="http://www.w3.org/2000/svg">
<path d="M36.2574 15.3416C39.3067 14.6207 42.0776 16.2684 43.0819 17.1824C43.9613 17.912 45.6806 20.102 45.6806 23.4207C45.6806 27.2905 43.3692 30.5247 42.075 31.394C40.7809 32.2633 37.5416 33.9215 35.2563 36.2234C32.662 38.8364 33.1363 40.1089 28.8765 44.1931C25.4687 47.4604 20.8107 46.7817 18.9882 46.0936C17.6312 45.5278 14.8053 43.3091 14.3569 38.9608C13.9084 34.6125 17.4877 30.9137 19.3334 29.6078C21.5258 28.0566 25.6812 25.0669 27.1052 22.6281C28.5695 20.1202 30.353 18.1141 31.1162 17.469C31.5595 17.0602 33.2082 16.0625 36.2574 15.3416Z" fill="#F0F0F0"/>
<path d="M39.344 17.8223C37.4533 18.6701 33.1578 21.2556 31.9144 24.0008C30.6709 26.7461 28.0467 29.0589 26.7885 29.974L22.5293 32.7798" stroke="white" stroke-width="1.5" stroke-linecap="round" stroke-linejoin="round"/>
<path d="M42.5348 20.748C41.8645 22.7555 39.7782 27.1764 36.7959 28.8005C33.8136 30.4246 30.5458 33.6849 29.2848 35.1121C28.3497 36.4285 26.0515 39.3752 24.3389 40.6301C22.6263 41.885 20.3772 42.8508 19.4668 43.1769" stroke="white" stroke-width="1.5" stroke-linecap="round" stroke-linejoin="round"/>
<path d="M21.375 37.1367C22.0381 37.8606 23.4989 39.58 24.0368 40.6672C24.5747 41.7543 26.1475 42.8013 26.8667 43.1889" stroke="white" stroke-width="1.5" stroke-linecap="round" stroke-linejoin="round"/>
<path d="M24.9727 28.0234C25.6796 28.9754 27.3508 31.0763 28.3796 31.8646" stroke="white" stroke-width="1.5" stroke-linecap="round" stroke-linejoin="round"/>
<path d="M30.3574 22.2832L32.0757 24.1087C32.674 24.482 34.0424 25.4005 34.7297 26.0877C35.417 26.775 36.3865 28.256 36.7854 28.9105C36.9596 29.0846 37.4595 29.5164 38.0652 29.8508C38.6708 30.1853 40.0424 31.5494 40.6525 32.1896" stroke="white" stroke-width="1.5" stroke-linecap="round" stroke-linejoin="round"/>
<path d="M33.0605 19.084L34.5809 20.8051" stroke="white" stroke-width="1.5" stroke-linecap="round" stroke-linejoin="round"/>
<path d="M38.2324 22.3984L40.6011 24.8334L42.5722 26.233" stroke="white" stroke-width="1.5" stroke-linecap="round" stroke-linejoin="round"/>
<path d="M28.1133 24.9453L30.0139 26.877" stroke="white" stroke-width="1.5" stroke-linecap="round" stroke-linejoin="round"/>
<path d="M31.9219 28.7559L33.6543 30.9787L35.804 33.0346" stroke="white" stroke-width="1.5" stroke-linecap="round" stroke-linejoin="round"/>
<path d="M31.8711 35.6445L34.0557 37.4756" stroke="white" stroke-width="1.5" stroke-linecap="round" stroke-linejoin="round"/>
<path d="M17.7969 37.7832L19.1907 39.6598" stroke="white" stroke-width="1.5" stroke-linecap="round" stroke-linejoin="round"/>
<path d="M23.1191 44.1426L25.1714 46.2277" stroke="white" stroke-width="1.5" stroke-linecap="round" stroke-linejoin="round"/>
<path d="M29.0458 58.5302C29.0366 58.8062 28.8053 59.0229 28.5295 59.0089C23.7379 58.7661 19.0781 57.3399 14.9682 54.8544C10.7156 52.2826 7.19402 48.6627 4.74029 44.3409C2.28657 40.0191 0.982778 35.14 0.953632 30.1703C0.925465 25.3674 2.08875 20.6351 4.33585 16.3961C4.46518 16.1521 4.76978 16.0646 5.0115 16.1981L9.22123 18.5233C9.46295 18.6568 9.55015 18.9608 9.42187 19.2053C7.65474 22.5739 6.74041 26.3273 6.76275 30.1363C6.78607 34.112 7.8291 38.0153 9.79208 41.4727C11.7551 44.9302 14.5723 47.8261 17.9744 49.8836C21.2337 51.8547 24.9254 52.993 28.7236 53.2018C28.9993 53.217 29.2157 53.4476 29.2064 53.7236L29.0458 58.5302Z" fill="#F0F0F0"/>
<path d="M5.76808 14.9092C5.53368 14.7633 5.46164 14.4546 5.61164 14.2228C8.2177 10.1944 11.7827 6.87203 15.9902 4.55552C20.3437 2.15857 25.2394 0.91876 30.2091 0.954668C35.1787 0.990577 40.0561 2.30101 44.3745 4.76061C48.548 7.13768 52.0647 10.5113 54.6123 14.5768C54.7589 14.8108 54.6824 15.1184 54.4459 15.261L50.3273 17.7441C50.0908 17.8867 49.784 17.8102 49.6363 17.5768C47.6027 14.3622 44.8093 11.6936 41.4994 9.80849C38.0447 7.84081 34.1428 6.79246 30.1671 6.76373C26.1914 6.73501 22.2748 7.72686 18.792 9.64441C15.4553 11.4815 12.6236 14.1094 10.5437 17.2943C10.3927 17.5256 10.0848 17.5976 9.85035 17.4516L5.76808 14.9092Z" fill="#F0F0F0"/>
<path d="M55.1838 16.5606C55.4274 16.4306 55.7307 16.5225 55.8565 16.7683C58.0421 21.0394 59.1369 25.788 59.0393 30.59C58.9384 35.5588 57.5642 40.4185 55.0483 44.7044C52.5324 48.9903 48.9588 52.559 44.6695 55.069C40.5242 57.4949 35.8443 58.8536 31.0496 59.0271C30.7736 59.0371 30.5455 58.8171 30.5403 58.541L30.4491 53.7326C30.4439 53.4565 30.6635 53.229 30.9395 53.2178C34.7403 53.0639 38.448 51.9791 41.7355 50.0552C45.1669 48.0472 48.0257 45.1922 50.0385 41.7635C52.0512 38.3348 53.1505 34.447 53.2313 30.472C53.3087 26.6638 52.4487 22.8976 50.7304 19.5038C50.6057 19.2575 50.6973 18.9548 50.9409 18.8248L55.1838 16.5606Z" fill="#F0F0F0"/>
</svg>
