<svg width="60" height="60" viewBox="0 0 60 60" fill="none" xmlns="http://www.w3.org/2000/svg">
<path d="M41.484 35.8779C41.484 42.3628 36.2269 47.6199 29.742 47.6199C23.2571 47.6199 18 42.3628 18 35.8779C18 29.3929 25.3573 12 29.742 12C34.367 12 41.484 29.3929 41.484 35.8779Z" fill="#F0F0F0"/>
<circle cx="24.7448" cy="37.4264" r="2.86003" fill="white"/>
<circle cx="23.552" cy="32.2239" r="1.66727" fill="white"/>
<path d="M29.0478 58.5302C29.0385 58.8062 28.8073 59.0229 28.5315 59.0089C23.7398 58.7661 19.08 57.3399 14.9701 54.8544C10.7176 52.2826 7.19597 48.6627 4.74225 44.3409C2.28852 40.0191 0.984731 35.14 0.955586 30.1703C0.927419 25.3674 2.0907 20.6351 4.3378 16.3961C4.46714 16.1521 4.77174 16.0646 5.01346 16.1981L9.22319 18.5233C9.46491 18.6568 9.5521 18.9608 9.42382 19.2053C7.6567 22.5739 6.74237 26.3273 6.7647 30.1363C6.78802 34.112 7.83105 38.0153 9.79403 41.4727C11.757 44.9302 14.5743 47.8261 17.9763 49.8836C21.2357 51.8547 24.9273 52.993 28.7255 53.2018C29.0013 53.217 29.2176 53.4476 29.2084 53.7236L29.0478 58.5302Z" fill="#F0F0F0"/>
<path d="M5.77004 14.9092C5.53563 14.7633 5.46359 14.4546 5.61359 14.2228C8.21965 10.1944 11.7847 6.87203 15.9921 4.55552C20.3457 2.15857 25.2414 0.91876 30.211 0.954668C35.1807 0.990577 40.058 2.30101 44.3765 4.76061C48.55 7.13768 52.0666 10.5113 54.6142 14.5768C54.7608 14.8108 54.6843 15.1184 54.4479 15.261L50.3293 17.7441C50.0928 17.8867 49.7859 17.8102 49.6383 17.5768C47.6046 14.3622 44.8112 11.6936 41.5014 9.80849C38.0466 7.84081 34.1448 6.79246 30.1691 6.76373C26.1934 6.73501 22.2768 7.72686 18.7939 9.64441C15.4572 11.4815 12.6256 14.1094 10.5456 17.2943C10.3946 17.5256 10.0867 17.5976 9.85231 17.4516L5.77004 14.9092Z" fill="#F0F0F0"/>
<path d="M55.1857 16.5606C55.4294 16.4306 55.7327 16.5225 55.8584 16.7683C58.0441 21.0394 59.1388 25.788 59.0413 30.59C58.9403 35.5588 57.5662 40.4185 55.0502 44.7044C52.5343 48.9903 48.9608 52.559 44.6715 55.069C40.5261 57.4949 35.8462 58.8536 31.0515 59.0271C30.7756 59.0371 30.5475 58.8171 30.5422 58.541L30.4511 53.7326C30.4458 53.4565 30.6655 53.229 30.9414 53.2178C34.7422 53.0639 38.4499 51.9791 41.7374 50.0552C45.1689 48.0472 48.0277 45.1922 50.0404 41.7635C52.0532 38.3348 53.1525 34.447 53.2333 30.472C53.3106 26.6638 52.4506 22.8976 50.7324 19.5038C50.6076 19.2575 50.6992 18.9548 50.9428 18.8248L55.1857 16.5606Z" fill="#F0F0F0"/>
</svg>
