<svg width="119" height="173" viewBox="0 0 119 173" fill="none" xmlns="http://www.w3.org/2000/svg">
<path d="M23.8024 155.363C30.835 158.737 47.3935 141.519 54.7936 132.489L31.2223 132.577C8.67765 155.618 9.25761 158.384 11.4303 158.841C8.35618 161.944 4.46741 166.443 4.46741 166.443C1.4862 169.899 0.597432 171.444 2.21184 171.571C4.78054 171.774 17.2628 160.918 23.8024 155.363Z" fill="white"/>
<path d="M23.8024 155.363C30.835 158.737 47.3935 141.519 54.7936 132.489L31.2223 132.577C8.67765 155.618 9.25761 158.384 11.4303 158.841M23.8024 155.363L40.7369 140.507M23.8024 155.363C17.2628 160.918 4.78054 171.774 2.21184 171.571C0.597432 171.444 1.4862 169.899 4.46741 166.443C4.46741 166.443 8.35618 161.944 11.4303 158.841M26.5891 144.526C21.2978 149.107 15.8056 154.424 11.4303 158.841" stroke="#F0F0F0" stroke-width="2" stroke-linecap="round" stroke-linejoin="round"/>
<mask id="path-3-inside-1_738_5897" fill="white">
<path d="M14.8242 129.045H118.849V138.021H14.8242V129.045Z"/>
</mask>
<path d="M14.8242 129.045H118.849V138.021H14.8242V129.045Z" fill="#F0F0F0"/>
<path d="M14.8242 129.045V131.045H118.849V129.045V127.045H14.8242V129.045ZM118.849 138.021V136.021H14.8242V138.021V140.021H118.849V138.021Z" fill="#F0F0F0" mask="url(#path-3-inside-1_738_5897)"/>
<path d="M58.9884 67.6199C58.6085 65.894 58.3935 63.9828 58.6536 60.7287M41.6334 122.197C40.3262 124.376 36.2159 128.12 34.3242 129.72H57.2829M41.6334 122.197C38.9255 123.647 32.5047 126.711 28.4844 127.368C29.3761 126.274 30.4906 124.842 31.7014 123.142C32.2264 119.334 37.8704 115.548 42.3754 99.6628C42.5027 99.2138 42.5447 98.6917 42.7215 97.0609C40.4891 93.9651 45.7677 83.9106 52.4153 76.3175M41.6334 122.197L52.1254 117.014L61.3635 111.631C61.3635 111.631 64.3399 109.621 65.3116 108.774C77.0774 98.5219 72.8972 85.0991 68.8675 78.8027M91.3535 21.6158C91.4371 24.5165 90.4413 31.3285 85.7895 35.371C91.9417 39.5194 98.1345 47.0927 101.676 59.8252C102.507 62.8135 103.142 65.3867 103.65 68.2784M88.3536 22.4292C90.4935 13.9259 87.75 4.48808 84.9953 1C87.4403 15.1492 76.4725 30.2472 68.5252 31.6521C65.7971 32.3323 62.425 33.9629 58.9884 38.1487C57.2286 40.2922 56.5917 42.5605 56.6039 44.7013M104.352 73.2029C106.373 90.8373 102.305 106.264 88.2859 123.183" stroke="#F0F0F0" stroke-width="2" stroke-linecap="round" stroke-linejoin="round"/>
<circle cx="74.0801" cy="45.4375" r="1.5" fill="#F0F0F0" stroke="#F0F0F0"/>
<path d="M84.7958 63.1875C84.6651 64.1619 83.9288 66.4719 82.0293 67.916C83.3163 67.743 85.6714 66.5551 84.7958 63.1875Z" fill="#F0F0F0" stroke="#F0F0F0" stroke-linejoin="round"/>
<path d="M97.3639 49.0198C97.323 49.1315 96.8578 52.8587 92.6692 55.2357" stroke="#F0F0F0" stroke-width="2" stroke-linecap="round" stroke-linejoin="round"/>
<path d="M68.7316 69.1617C68.6182 69.1975 65.3832 71.1063 60.9425 69.2424" stroke="#F0F0F0" stroke-width="2" stroke-linecap="round" stroke-linejoin="round"/>
<path d="M73.9488 69.2817C73.8573 69.3576 71.5806 72.3452 66.7649 72.2931" stroke="#F0F0F0" stroke-width="2" stroke-linecap="round" stroke-linejoin="round"/>
<path d="M59.0107 67.6963C58.9165 67.7687 55.5518 69.4581 54.3596 73.6902" stroke="#F0F0F0" stroke-width="2" stroke-linecap="round" stroke-linejoin="round"/>
<path d="M63.0918 70.3486C63.0389 70.4037 61.156 71.937 60.47 74.2359" stroke="#F0F0F0" stroke-width="2" stroke-linecap="round" stroke-linejoin="round"/>
<path d="M101.202 71.7146C101.213 71.7487 101.642 72.8071 101.649 73.8271" stroke="#F0F0F0" stroke-width="2" stroke-linecap="round" stroke-linejoin="round"/>
<path d="M87.2008 25.2041C87.1761 25.2592 86.4678 27.0472 85.5268 28.402" stroke="#F0F0F0" stroke-width="2" stroke-linecap="round" stroke-linejoin="round"/>
<path d="M99.0063 65.3779C98.8689 65.3721 93.5082 67.4531 90.687 63.1731" stroke="#F0F0F0" stroke-width="2" stroke-linecap="round" stroke-linejoin="round"/>
<path d="M80.5748 84.5531C80.4351 84.5758 75.8876 88.7193 71.3861 83.309" stroke="#F0F0F0" stroke-width="2" stroke-linecap="round" stroke-linejoin="round"/>
<path d="M59.4488 80.6854C59.3456 80.6414 56.0313 82.7221 53.569 78.8844" stroke="#F0F0F0" stroke-width="2" stroke-linecap="round" stroke-linejoin="round"/>
<path d="M96.6229 97.0709C96.5284 97.0679 92.8757 99.5586 90.8706 94.7968" stroke="#F0F0F0" stroke-width="2" stroke-linecap="round" stroke-linejoin="round"/>
<path d="M88.1861 86.8734C88.0464 86.8961 83.4989 91.0396 78.9975 85.6293" stroke="#F0F0F0" stroke-width="2" stroke-linecap="round" stroke-linejoin="round"/>
<path d="M64.294 86.4282C64.1563 86.3872 58.3802 88.2069 56.2715 81.1979" stroke="#F0F0F0" stroke-width="2" stroke-linecap="round" stroke-linejoin="round"/>
<path d="M69.5779 91.5084C69.4478 91.4715 64.008 92.9965 61.9822 86.8822" stroke="#F0F0F0" stroke-width="2" stroke-linecap="round" stroke-linejoin="round"/>
<path d="M62.513 95.4283C62.385 95.435 57.8866 98.2535 54.359 93.7759" stroke="#F0F0F0" stroke-width="2" stroke-linecap="round" stroke-linejoin="round"/>
<path d="M50.8439 98.4174C50.7349 98.44 47.522 101.64 42.9383 97.1027" stroke="#F0F0F0" stroke-width="2" stroke-linecap="round" stroke-linejoin="round"/>
<path d="M71.1717 100.359C70.9647 100.332 62.6804 101.778 58.8056 96.7337" stroke="#F0F0F0" stroke-width="2" stroke-linecap="round" stroke-linejoin="round"/>
<path d="M72.7044 95.7742C72.6103 95.7449 68.65 97.137 67.2348 91.9588" stroke="#F0F0F0" stroke-width="2" stroke-linecap="round" stroke-linejoin="round"/>
<path d="M68.9278 113.313C68.8148 113.314 64.5696 115.511 61.958 111.63" stroke="#F0F0F0" stroke-width="2" stroke-linecap="round" stroke-linejoin="round"/>
<path d="M74.5967 116.461C74.4537 116.461 69.0892 119.297 65.7648 114.24" stroke="#F0F0F0" stroke-width="2" stroke-linecap="round" stroke-linejoin="round"/>
<path d="M101.164 99.9341C101.069 99.9312 97.4167 102.422 95.4116 97.66" stroke="#F0F0F0" stroke-width="2" stroke-linecap="round" stroke-linejoin="round"/>
<path d="M103.666 68.3179C103.537 68.311 98.4997 70.4383 95.8131 65.9709" stroke="#F0F0F0" stroke-width="2" stroke-linecap="round" stroke-linejoin="round"/>
<path d="M100.174 55.6212C100.158 55.6549 100.062 56.8126 98.1158 57.4164" stroke="#F0F0F0" stroke-width="2" stroke-linecap="round" stroke-linejoin="round"/>
<path d="M61.9377 99.2461C60.568 101.794 56.05 108.169 48.9355 113.287" stroke="#F0F0F0" stroke-width="2" stroke-linecap="round" stroke-linejoin="round"/>
<path d="M47.4375 104.836C46.508 108.926 42.0485 118.378 31.6465 123.466" stroke="#F0F0F0" stroke-width="2" stroke-linecap="round" stroke-linejoin="round"/>
<path d="M61.4044 59.6854C61.6018 56.6822 64.1286 52.9372 65.117 52.0314H61.3103L57.2205 49.2383C57.1171 51.5702 58.4359 58.2126 61.4044 59.6854Z" fill="#F0F0F0" stroke="#F0F0F0" stroke-width="2" stroke-linejoin="round"/>
<path d="M57.321 50.4512C59.0721 51.8482 62.3148 52.6248 63.8609 53.3002C64.7687 53.6969 68.0461 53.0982 67.0037 50.4892C65.9069 47.7439 61.489 46.853 58.8899 47.3634C57.6978 47.5976 55.8331 49.0474 57.321 50.4512Z" fill="#F0F0F0" stroke="#F0F0F0" stroke-width="2"/>
<path d="M61.273 49.3775C61.6127 49.6485 62.2417 49.7991 62.5416 49.9301C62.7177 50.0071 63.3535 49.8909 63.1513 49.3848C62.9385 48.8523 62.0815 48.6795 61.5773 48.7785C61.3461 48.8239 60.9844 49.1052 61.273 49.3775Z" fill="white"/>
<circle cx="47.9688" cy="102.412" r="1.03711" fill="#F0F0F0"/>
<circle cx="29.1387" cy="141.686" r="1.03711" fill="#F0F0F0"/>
<path d="M59.3178 135.682C62.4503 135.682 64.9897 133.142 64.9897 130.01C64.9897 126.877 62.4503 124.338 59.3178 124.338C56.5779 124.338 54.2917 126.281 53.7617 128.864C56.1155 128.443 60.5221 129.218 59.3178 135.682Z" fill="#F0F0F0"/>
<path d="M64.7006 134.562C67.2132 134.562 69.25 132.394 69.25 129.72C69.25 127.045 67.2132 124.877 64.7006 124.877C62.5029 124.877 60.6692 126.536 60.2441 128.741C62.1321 128.382 65.6666 129.043 64.7006 134.562Z" fill="#F0F0F0"/>
<path d="M81.108 134.41C83.6206 134.41 85.6574 132.303 85.6574 129.703C85.6574 127.104 83.6206 124.996 81.108 124.996C78.9104 124.996 77.0481 127.163 76.623 129.307C78.511 128.958 82.074 129.046 81.108 134.41Z" fill="#F0F0F0"/>
<path d="M86.338 135.573C89.404 134.931 91.3694 131.925 90.7278 128.859C90.0862 125.793 87.0805 123.828 84.0144 124.469C81.3326 125.031 79.4929 127.4 79.5032 130.037C81.7209 129.143 86.1927 128.999 86.338 135.573Z" fill="#F0F0F0"/>
<path d="M58.8799 126.396C59.5635 126.115 61.3444 125.726 62.9989 126.42C62.4024 125.647 60.7435 124.56 58.8799 126.396Z" fill="white" stroke="white" stroke-width="0.5" stroke-linejoin="round"/>
<path d="M79.8428 126.632C80.5264 126.351 82.3073 125.962 83.9618 126.656C83.3653 125.883 81.7064 124.796 79.8428 126.632Z" fill="white" stroke="white" stroke-width="0.5" stroke-linejoin="round"/>
<path d="M85.0322 126.632C85.7159 126.351 87.4968 125.962 89.1512 126.656C88.5547 125.883 86.8958 124.796 85.0322 126.632Z" fill="white" stroke="white" stroke-width="0.5" stroke-linejoin="round"/>
<path d="M64.4979 126.923C65.0577 126.642 66.5162 126.253 67.8711 126.947C67.3826 126.174 66.0241 125.087 64.4979 126.923Z" fill="white" stroke="white" stroke-width="0.5" stroke-linejoin="round"/>
<path d="M59.831 128.464C60.5019 128.19 62.2526 127.819 63.8881 128.524C63.2939 127.749 61.6505 126.654 59.831 128.464Z" fill="white" stroke="white" stroke-width="0.5" stroke-linejoin="round"/>
<path d="M80.6885 128.374C81.3594 128.101 83.11 127.729 84.7456 128.434C84.1513 127.66 82.508 126.564 80.6885 128.374Z" fill="white" stroke="white" stroke-width="0.5" stroke-linejoin="round"/>
<path d="M85.8779 128.374C86.5488 128.101 88.2995 127.729 89.935 128.434C89.3408 127.66 87.6974 126.564 85.8779 128.374Z" fill="white" stroke="white" stroke-width="0.5" stroke-linejoin="round"/>
<path d="M65.2772 128.992C65.8266 128.718 67.2603 128.346 68.5997 129.051C68.113 128.277 66.7672 127.181 65.2772 128.992Z" fill="white" stroke="white" stroke-width="0.5" stroke-linejoin="round"/>
<path d="M104.078 68.25C116.548 83.1507 108.677 105.512 100.212 106.539" stroke="#F0F0F0" stroke-width="2" stroke-linecap="round" stroke-linejoin="round"/>
</svg>
