<svg width="59" height="61" viewBox="0 0 59 61" fill="none" xmlns="http://www.w3.org/2000/svg">
<rect x="2.5" y="2.5" width="53.5994" height="55.3129" rx="26.7997" stroke="#F0F0F0" stroke-width="5"/>
<path d="M16.2787 28.1155C16.4666 26.6145 17.7427 25.4883 19.2554 25.4883H39.478C40.9991 25.4883 42.2794 26.6266 42.4574 28.1372L44.2045 42.9617C44.4147 44.7454 43.0211 46.3128 41.2251 46.3128H17.3991C15.5943 46.3128 14.1981 44.7308 14.4223 42.9401L16.2787 28.1155Z" fill="#F0F0F0"/>
<path d="M19.3362 31.2536C19.4039 29.9963 20.4571 29.0195 21.7159 29.0463C22.9766 29.0732 23.9878 30.0968 23.9994 31.3576L24.0848 40.6017C24.0984 42.0828 22.8847 43.2819 21.4039 43.2503C19.9211 43.2186 18.759 41.9657 18.8388 40.4847L19.3362 31.2536Z" fill="white"/>
<circle cx="29.2988" cy="20.2753" r="4.77532" stroke="#F0F0F0" stroke-width="3"/>
</svg>
