<svg width="180" height="180" viewBox="0 0 180 180" fill="none" xmlns="http://www.w3.org/2000/svg">
<path d="M57.6991 61.8221C48.6134 55.1009 41.226 27.5102 36.5766 16.4807C22.1502 26.1826 -1.61103 53.9267 0.0861963 93.0748C1.7668 131.839 28.0368 156.869 44.4999 166.4C46.084 167.195 47.6765 166.81 43.8746 158.095C39.1224 147.201 28.1059 117.75 28.4453 101.239C28.1573 93.7522 29.7877 76.0885 38.6133 65.3312C47.4388 54.574 45.3456 65.8419 43.1958 72.8204C44.893 75.8842 48.1177 77.4161 51.1728 83.7138C54.3 90.1606 62.6927 92.5348 67.4661 93.0753C73.4215 93.7497 82.5715 93.0753 90.7182 87.2876C96.4011 83.2503 92.3953 78.9944 90.3787 78.4374C71.557 76.0978 68.6542 69.9263 57.6991 61.8221Z" fill="white"/>
<path d="M50.9999 166.9L36.0674 124.393C42.0417 136.24 57.9205 143.622 64.2568 146.685L73.9156 173.073C74.3682 174.605 71.1086 176.093 64.9999 175.4C59.0441 174.725 52.4708 170.248 50.9999 166.9Z" fill="white"/>
<path d="M77.9999 173.681L68.4845 147.712C72.1505 149.21 84.3407 150.203 89.0364 150.09L97.9301 173.681C98.7633 176.069 98.2457 178.311 91.9999 179.4C85.7541 180.49 78.8485 176.234 77.9999 173.681Z" fill="white"/>
<path d="M101.984 173.967L93.0943 150.09C100.426 149.545 109.614 145.896 111.934 144.138L120.589 166.605C121.268 169.158 121.746 173.949 115.5 176.4C109.254 178.851 102.889 176.521 101.984 173.967Z" fill="white"/>
<path d="M49.3212 36.2195L54.5826 50.0064C60.8284 54.2276 70.1817 56.1962 72.8973 56.6501L62.8836 30.949C62.0916 28.6228 58.7424 24.7869 53.7186 26.6932C48.6948 28.5996 48.5292 34.0068 49.3212 36.2195Z" fill="white"/>
<path d="M76.3072 57.6659L58.7964 12.4186C58.3438 9.63854 60.5383 4.97176 66.4999 3.40017C72.9339 1.70402 76.0516 5.03694 76.6173 6.96598L96.4887 55.9697C95.2441 56.5371 89.885 58.4488 85.8116 58.8573C81.7383 59.2658 77.7781 58.2332 76.3072 57.6659Z" fill="white"/>
<path d="M80.5336 7.25702L99.2198 54.6021C101.664 52.968 111.538 48.0266 115.498 46.0976L99.4999 4.40041C97.4632 -0.0249434 92.6979 -0.551893 86.9999 0.400437C80.8899 1.42163 79.4999 3.40017 80.5336 7.25702Z" fill="white"/>
<path d="M112 2.40041C103.989 1.03873 102.561 3.62512 103.353 5.78109L118.806 45.4214C119.485 45.2853 121.578 45.0243 122.54 44.9108C122.133 43.5528 123.219 42.5279 124.746 44.0597L125.765 45.081C124.321 43.0431 124.38 40.996 125.765 40.996C127.036 40.996 129.076 42.1828 130.773 43.8849C132.131 45.2466 133.941 47.4025 134.676 48.3103C135.818 48.8737 138.37 50.24 139.444 51.1979L124 10.9004C123.151 8.68769 120.011 3.76208 112 2.40041Z" fill="white"/>
<path d="M178.5 112.4C170.847 142.023 152.55 157.571 140.5 165.4L135.5 168.4C130.424 169.754 131.107 166.743 123.171 147.333C114.685 126.578 126.84 108.562 132.384 101.931C132.384 103.406 133.165 105.301 136.287 101.08C139.41 96.8586 140.53 91.7183 140.7 89.6758C147.489 89.6758 148.621 77.3042 148.424 72.48C148.424 68.0546 148.11 59.0199 147.745 51.8847C146.98 36.9109 157.865 33.3888 160.5 33.4002C162.944 33.4107 163.568 36.4001 163.5 36.9002C162.823 40.6224 162.866 48.6448 171.691 67.7082C180.517 86.7717 179.842 105.087 178.5 112.4Z" fill="white"/>
<circle cx="122.928" cy="64.0247" r="4.80724" fill="white"/>
<path d="M142.927 63.1478C143.424 62.6652 143.796 63.0656 143.92 63.3262C145.658 66.9737 145.118 76.6444 143.212 83.4493C142.715 85.2659 141.986 86.8503 141.887 85.1172C141.788 83.3842 140.563 80.4324 140.025 79.3034L134.523 69.0237C134.026 67.9816 134.44 66.6265 135.765 66.8644C137.421 67.1618 138.87 66.7073 139.987 66.1934C141.331 65.5756 142.306 63.7509 142.927 63.1478Z" fill="white"/>
<circle cx="139.054" cy="63.3488" r="1.03012" fill="white"/>
<path d="M135.688 81.1971C134.698 79.4038 132.238 73.3854 131.595 70.4355C130.217 71.3207 127.773 73.8125 129.02 76.6981C130.268 79.5836 133.985 80.8997 135.688 81.1971Z" fill="white"/>
</svg>
