<svg width="24" height="26" viewBox="0 0 24 26" fill="none" xmlns="http://www.w3.org/2000/svg">
<path d="M5.41113 0C5.96322 0.000226819 6.41113 0.447855 6.41113 1V2.70898H16.6738V1C16.6738 0.447715 17.1215 0 17.6738 0H18.2861C18.8383 0.000156116 19.2861 0.447812 19.2861 1V2.70898H21.083C22.1876 2.70901 23.083 3.60443 23.083 4.70898V24C23.0827 25.1043 22.1874 26 21.083 26H2C0.895594 26 0.000264578 25.1043 0 24V4.70898C0 3.60441 0.895431 2.70898 2 2.70898H3.79883V1C3.79883 0.447715 4.24654 0 4.79883 0H5.41113ZM2.52344 23.2588H20.5615V10.3418H2.52344V23.2588Z" fill="#97928A"/>
<ellipse cx="6.30514" cy="14.229" rx="1.35983" ry="1.3599" fill="#97928A"/>
<ellipse cx="11.5415" cy="14.229" rx="1.35983" ry="1.3599" fill="#97928A"/>
<ellipse cx="16.7778" cy="14.229" rx="1.35983" ry="1.3599" fill="#97928A"/>
<ellipse cx="6.30514" cy="19.4497" rx="1.35983" ry="1.3599" fill="#97928A"/>
<ellipse cx="11.5415" cy="19.4497" rx="1.35983" ry="1.3599" fill="#97928A"/>
<ellipse cx="16.7778" cy="19.4497" rx="1.35983" ry="1.3599" fill="#97928A"/>
</svg>
