<svg width="23" height="23" viewBox="0 0 23 23" fill="none" xmlns="http://www.w3.org/2000/svg">
<path d="M16.1922 12.7731C15.4529 12.7731 14.8594 12.1683 14.8594 11.4383C14.8594 10.6979 15.4529 10.1035 16.1922 10.1035C16.9315 10.1035 17.525 10.6979 17.525 11.4383C17.525 12.1683 16.9315 12.7731 16.1922 12.7731Z" fill="#97928A"/>
<path d="M11.3914 12.7733C10.6521 12.7628 10.0586 12.1684 10.0586 11.428C10.0586 10.6981 10.6625 10.0932 11.3914 10.1036C12.1307 10.1036 12.7242 10.6981 12.7242 11.4385C12.7242 12.1684 12.1307 12.7733 11.3914 12.7733Z" fill="#97928A"/>
<path d="M6.59062 12.7731C5.86174 12.7731 5.25781 12.1683 5.25781 11.4383C5.25781 10.6979 5.85133 10.1035 6.59062 10.1035C7.32991 10.1035 7.92342 10.6979 7.92342 11.4383C7.92342 12.1683 7.32991 12.7627 6.59062 12.7731Z" fill="#97928A"/>
<path d="M11.4334 1C5.38368 1 1 5.94295 1 11.4282C1 13.1801 1.51021 14.9842 2.40569 16.6318C2.57229 16.903 2.59312 17.2471 2.47858 17.5704L1.78094 19.9063C1.62475 20.4694 2.10373 20.8865 2.63477 20.7197L4.7381 20.094C5.31079 19.9063 5.75853 20.1461 6.28956 20.4694C7.80979 21.3662 9.70487 21.8251 11.4125 21.8251C16.5771 21.8251 21.8251 17.8311 21.8251 11.3969C21.8251 5.8491 17.3477 1 11.4334 1" stroke="#97928A" stroke-width="2"/>
</svg>
