<svg width="120" height="120" viewBox="0 0 120 120" fill="none" xmlns="http://www.w3.org/2000/svg">
<rect x="23.9141" y="48.3848" width="14.168" height="25.1523" rx="7.08398" fill="white"/>
<rect x="79.6152" y="48.3848" width="14.168" height="25.1523" rx="7.08398" fill="white"/>
<path d="M58.709 86.922L54.82 83.033C53.746 81.958 51.913 82.427 51.486 83.885L50.184 88.336C49.446 90.487 51.079 95.036 60.123 95.036C69.186 95.036 70.391 90.651 69.873 88.336L68.709 83.993C68.311 82.505 66.452 82.007 65.363 83.096L61.537 86.922C60.756 87.703 59.49 87.703 58.709 86.922Z" fill="white"/>
<path d="M60 60C65.87 60 70.629 64.759 70.629 70.629C70.394 74.605 68.185 78.362 61.329 84.729C60.58 85.424 59.421 85.425 58.671 84.729C51.966 78.51 49.6718 74.667 49.3711 70.629C49.3711 64.759 54.13 60 60 60ZM56.658 62.286C56.75 61.831 56.226 61.508 55.86 61.794L53.679 63.501C53.284 63.81 53.538 64.442 54.037 64.392L55.914 64.201C56.132 64.179 56.311 64.017 56.354 63.802L56.658 62.286ZM64.141 61.794C63.775 61.508 63.251 61.831 63.343 62.286L63.646 63.802C63.69 64.017 63.869 64.179 64.087 64.201L65.964 64.392C66.463 64.442 66.717 63.81 66.322 63.501L64.141 61.794Z" fill="white"/>
</svg>
