<svg width="20" height="17" viewBox="0 0 20 17" fill="none" xmlns="http://www.w3.org/2000/svg">
  <path d="M14.94 14.44C13.52 15.36 11.84 15.88 10 15.88C4.5 15.88 1 8.88 1 8.88C2.06 6.98 3.52 5.38 5.28 4.24M8.53 2.33C9 2.21 9.5 2.13 10 2.13C15.5 2.13 19 8.88 19 8.88C18.47 9.84 17.85 10.73 17.14 11.54M11.77 10.65C11.53 10.91 11.24 11.12 10.91 11.27C10.58 11.42 10.23 11.5 9.87 11.5C9.51 11.5 9.15 11.42 8.83 11.27C8.5 11.12 8.21 10.91 7.97 10.65C7.73 10.39 7.54 10.08 7.42 9.74C7.3 9.4 7.24 9.04 7.26 8.67C7.27 8.31 7.36 7.95 7.51 7.63C7.66 7.3 7.88 7.01 8.14 6.77" stroke="#97928A" stroke-width="1.5" stroke-linecap="round" stroke-linejoin="round"/>
  <path d="M1 0.88L19 16.88" stroke="#97928A" stroke-width="1.5" stroke-linecap="round" stroke-linejoin="round"/>
</svg>
