<svg width="24" height="24" viewBox="0 0 24 24" fill="none" xmlns="http://www.w3.org/2000/svg">
  <path d="M17.94 17.94C16.23 19.24 14.18 20 12 20C5 20 1 12 1 12C2.24 9.36 4.09 7.16 6.34 5.56M9.9 4.24C10.59 4.08 11.29 4 12 4C19 4 23 12 23 12C22.39 13.13 21.68 14.18 20.87 15.12M14.12 14.12C13.8 14.47 13.42 14.74 12.99 14.94C12.56 15.13 12.1 15.23 11.63 15.23C11.16 15.23 10.7 15.13 10.27 14.94C9.84 14.74 9.46 14.47 9.14 14.12C8.82 13.78 8.57 13.38 8.4 12.93C8.23 12.49 8.15 12.01 8.17 11.54C8.18 11.07 8.29 10.6 8.49 10.17C8.69 9.74 8.97 9.36 9.32 9.04" stroke="#1A1A1A" stroke-width="1.5" stroke-linecap="round" stroke-linejoin="round"/>
  <path d="M1 1L23 23" stroke="#1A1A1A" stroke-width="1.5" stroke-linecap="round" stroke-linejoin="round"/>
</svg>
