<svg width="30" height="30" viewBox="0 0 30 30" fill="none" xmlns="http://www.w3.org/2000/svg">
<path d="M3.75 13.2067C3.75 12.4888 3.75 12.1298 3.84253 11.7992C3.9245 11.5064 4.05921 11.231 4.24003 10.9865C4.44417 10.7105 4.72753 10.4901 5.29424 10.0493L13.7721 3.45543C14.2113 3.11386 14.4309 2.94308 14.6733 2.87743C14.8873 2.8195 15.1127 2.8195 15.3267 2.87743C15.5691 2.94308 15.7887 3.11386 16.2279 3.45543L24.7058 10.0493C25.2725 10.4901 25.5558 10.7105 25.76 10.9865C25.9408 11.231 26.0755 11.5064 26.1575 11.7992C26.25 12.1298 26.25 12.4888 26.25 13.2067V22.2504C26.25 23.6505 26.25 24.3506 25.9775 24.8854C25.7378 25.3558 25.3554 25.7382 24.885 25.9779C24.3502 26.2504 23.6501 26.2504 22.25 26.2504H7.75C6.34987 26.2504 5.6498 26.2504 5.11502 25.9779C4.64462 25.7382 4.26217 25.3558 4.02248 24.8854C3.75 24.3506 3.75 23.6505 3.75 22.2504V13.2067Z" fill="white" fill-opacity="0.1"/>
<path d="M11.25 26.2504V17.0004C11.25 16.3003 11.25 15.9503 11.3862 15.6829C11.5061 15.4477 11.6973 15.2565 11.9325 15.1366C12.1999 15.0004 12.5499 15.0004 13.25 15.0004H16.75C17.4501 15.0004 17.8001 15.0004 18.0675 15.1366C18.3027 15.2565 18.4939 15.4477 18.6138 15.6829C18.75 15.9503 18.75 16.3003 18.75 17.0004V26.2504" fill="white" fill-opacity="0.1"/>
<path d="M11.25 26.2504V17.0004C11.25 16.3003 11.25 15.9503 11.3862 15.6829C11.5061 15.4477 11.6973 15.2565 11.9325 15.1366C12.1999 15.0004 12.5499 15.0004 13.25 15.0004H16.75C17.4501 15.0004 17.8001 15.0004 18.0675 15.1366C18.3027 15.2565 18.4939 15.4477 18.6138 15.6829C18.75 15.9503 18.75 16.3003 18.75 17.0004V26.2504M13.7721 3.45543L5.29424 10.0493C4.72753 10.4901 4.44417 10.7105 4.24003 10.9865C4.05921 11.231 3.9245 11.5064 3.84253 11.7992C3.75 12.1298 3.75 12.4888 3.75 13.2067V22.2504C3.75 23.6505 3.75 24.3506 4.02248 24.8854C4.26217 25.3558 4.64462 25.7382 5.11502 25.9779C5.6498 26.2504 6.34987 26.2504 7.75 26.2504H22.25C23.6501 26.2504 24.3502 26.2504 24.885 25.9779C25.3554 25.7382 25.7378 25.3558 25.9775 24.8854C26.25 24.3506 26.25 23.6505 26.25 22.2504V13.2067C26.25 12.4888 26.25 12.1298 26.1575 11.7992C26.0755 11.5064 25.9408 11.231 25.76 10.9865C25.5558 10.7105 25.2725 10.4901 24.7058 10.0493L16.2279 3.45543C15.7887 3.11386 15.5691 2.94308 15.3267 2.87743C15.1127 2.8195 14.8873 2.8195 14.6733 2.87743C14.4309 2.94308 14.2113 3.11386 13.7721 3.45543Z" stroke="#97928A" stroke-width="2" stroke-linecap="round" stroke-linejoin="round"/>
</svg>
