<svg width="263" height="224" viewBox="0 0 263 224" fill="none" xmlns="http://www.w3.org/2000/svg">
<path fill-rule="evenodd" clip-rule="evenodd" d="M109.585 144.983C133.585 141.317 182.785 130.183 187.585 114.983C195.252 120.817 211.785 134.283 216.585 141.483C216.919 142.65 217.285 145.283 216.085 146.483C208.44 147.55 200.576 148.13 193.585 148.415C191.498 148.5 189.488 148.559 187.585 148.597C181.524 148.717 176.545 148.624 173.585 148.483L109.585 144.983Z" fill="url(#paint0_linear_273_599)"/>
<path fill-rule="evenodd" clip-rule="evenodd" d="M193.585 148.415C200.576 148.13 208.44 147.55 216.085 146.483C214.885 147.683 244.585 172.317 259.585 184.483C260.252 185.483 261.085 188.483 259.085 190.983L272.085 201.983C272.419 202.15 272.985 202.983 272.585 204.983L264.085 222.983L244.085 208.483L175.085 150.091C174.572 149.538 174.072 149.002 173.585 148.483C176.545 148.624 181.524 148.717 187.585 148.597C199.252 160.726 228.785 188.383 253.585 201.983C255.085 202.483 259.75 199.074 257.085 196.983C247.252 189.271 220.785 168.76 193.585 148.415Z" fill="#FF592E"/>
<path fill-rule="evenodd" clip-rule="evenodd" d="M187.585 114.983C182.785 130.183 133.585 141.317 109.585 144.983C71.5852 165.483 52.5852 153.983 48.0852 148.483C47.4935 147.638 46.9605 146.805 46.4793 145.983C42.9872 140.02 42.2153 134.637 41.4437 129.255C41.0636 126.604 40.6836 123.953 39.9787 121.234C39.8121 124.401 39.0787 130.334 37.4787 128.734C35.8787 127.134 34.4787 114.401 33.9787 108.234C33.4787 110.734 32.0787 115.434 30.4787 114.234C29.4912 113.494 29.535 110.81 29.5957 107.1C29.6244 105.343 29.6569 103.355 29.5852 101.234C29.7519 98.4993 29.7852 91.9742 28.5852 87.7561C27.7549 84.8374 25.4011 81.034 21.0852 76.9834C10.2852 68.3653 8.64577 58.0593 9.17605 53.9835C9.24536 41.6187 16.4386 27.481 47.5852 17.4833C51.5852 16.1994 65.5852 8.98332 75.5852 0.983322C77.0852 0.316655 79.4852 0.683321 77.0852 7.48332C75.1138 13.0691 69.0713 19.5995 66.0524 22.8622C65.3962 23.5715 64.8828 24.1263 64.5852 24.4834C66.0852 23.8168 74.2852 19.4835 77.0852 17.4834C79.8852 15.4833 79.9185 18.3167 79.5852 19.9834C79.2519 22.1501 73.2852 29.4834 70.0852 31.4834C72.2519 33.6501 77.2852 40.1834 80.0852 48.9834L81.0852 53.2788C71.1766 55.4863 59.9865 62.5446 65.4697 77.857C65.9966 79.3284 66.6954 80.8699 67.5852 82.4833C68.4516 84.0543 69.6523 86.127 71.0852 87.7561C72.6952 89.5864 74.5985 91.488 76.6507 93.5382C77.4424 94.3292 78.2575 95.1436 79.0852 95.9833C79.2611 96.1461 79.4446 96.3129 79.6353 96.4834L80.2901 101.983C81.0338 105.187 82.1732 108.858 84.5852 113.983C88.5852 122.483 91.0852 123.483 91.5852 121.483C91.9852 119.883 90.7519 116.483 90.0852 114.983C94.2519 118.983 107.185 126.283 125.585 123.483C143.985 120.683 159.252 113.65 164.585 110.483L189.585 112.983L187.585 114.983Z" fill="url(#paint1_linear_273_599)"/>
<path fill-rule="evenodd" clip-rule="evenodd" d="M65.4697 77.857C59.9865 62.5446 71.1766 55.4863 81.0852 53.2788C81.2523 53.2416 81.419 53.2057 81.5852 53.1713H86.0852C87.5128 53.2646 90.0961 53.3445 92.5489 53.4203C94.2201 53.472 95.8307 53.5218 96.9738 53.5727C107.932 54.0608 121.201 54.6518 130.085 57.9833C133.628 59.312 136.585 61.4833 140.085 65.4833L142.585 65.9834C152.893 69.5293 170.592 77.0634 175.585 83.4833L177.585 83.5634C178.929 83.6173 180.349 83.6743 181.832 83.734C196.445 84.3224 217.165 85.1685 231.4 85.7824C231.652 87.2216 228.628 88.516 227.085 88.9833C232.685 89.3833 232.419 92.15 231.585 93.4833C232.419 93.9833 233.985 95.3833 233.585 96.9833C233.185 98.5833 229.085 99.65 227.085 99.9833C231.485 102.383 221.919 103.65 216.585 103.983C210.585 103.983 203.419 107.65 200.585 109.483L156.085 104.983C155.919 104.483 155.085 103.283 153.085 102.483C151.085 101.683 150.585 103.483 150.585 104.483C138.985 101.283 130.419 106.483 127.585 109.483C123.419 108.317 114.785 106.383 113.585 107.983C112.385 109.583 117.085 111.983 119.585 112.983C103.618 114.152 86.6713 102.776 79.6353 96.4834C79.4446 96.3129 79.2611 96.1461 79.0852 95.9833C78.2575 95.1436 77.4424 94.3292 76.6507 93.5382C74.5985 91.488 72.6952 89.5864 71.0852 87.7561C69.6523 86.127 68.4516 84.0543 67.5852 82.4833C66.6954 80.8699 65.9966 79.3284 65.4697 77.857Z" fill="url(#paint2_linear_273_599)"/>
<path fill-rule="evenodd" clip-rule="evenodd" d="M80.2901 101.983L79.6353 96.4834C86.6713 102.776 103.618 114.152 119.585 112.983C117.085 111.983 112.385 109.583 113.585 107.983C114.785 106.383 123.419 108.317 127.585 109.483C130.419 106.483 138.985 101.283 150.585 104.483C150.585 103.483 151.085 101.683 153.085 102.483C155.085 103.283 155.919 104.483 156.085 104.983L200.585 109.483C203.419 107.65 210.585 103.983 216.585 103.983C221.919 103.65 231.485 102.383 227.085 99.9833C229.085 99.65 233.185 98.5833 233.585 96.9833C233.985 95.3833 232.419 93.9833 231.585 93.4833C232.419 92.15 232.685 89.3833 227.085 88.9833C228.628 88.516 231.652 87.2216 231.4 85.7824C238.815 86.1021 244.47 86.3589 246.585 86.4833C248.919 87.15 253.385 89.7833 252.585 94.9833C253.919 96.3166 255.585 99.5833 251.585 101.983C251.419 103.483 250.585 107.483 248.585 107.483L233.585 105.983C233.526 106.992 233.23 108.435 232.568 109.983C231.368 112.787 228.965 115.937 224.585 117.483L189.585 112.983L164.585 110.483C159.252 113.65 143.985 120.683 125.585 123.483C107.185 126.283 94.2519 118.983 90.0852 114.983C90.7519 116.483 91.9852 119.883 91.5852 121.483C91.0852 123.483 88.5852 122.483 84.5852 113.983C82.1732 108.858 81.0338 105.187 80.2901 101.983Z" fill="#FF592E"/>
<path fill-rule="evenodd" clip-rule="evenodd" d="M187.585 148.597C189.488 148.559 191.498 148.5 193.585 148.415C220.785 168.76 247.252 189.271 257.085 196.983C259.75 199.074 255.085 202.483 253.585 201.983C228.785 188.383 199.252 160.726 187.585 148.597Z" fill="url(#paint3_linear_273_599)"/>
<path fill-rule="evenodd" clip-rule="evenodd" d="M201.974 180.27C197.181 174.81 192.267 169.212 187.626 163.983L241.585 209.917C238.356 211.573 233.847 213.211 231.085 211.983C228.998 211.056 216.003 196.252 201.974 180.27Z" fill="url(#paint4_linear_273_599)"/>
<path fill-rule="evenodd" clip-rule="evenodd" d="M175.085 150.091L244.085 208.483C243.426 208.91 242.564 209.414 241.585 209.917L187.626 163.983C183.056 158.834 178.75 154.042 175.085 150.091Z" fill="url(#paint5_linear_273_599)"/>
<path d="M112.684 99.4128C110.448 97.8402 107.43 94.9251 116.413 95.2594L119.413 95.5571C126.996 96.4314 130.97 100.133 128.759 102.259C123.923 106.908 115.455 103.263 113.428 101.799C112.402 101.059 112.147 99.9294 112.684 99.4128Z" fill="#FF592E"/>
<path d="M10.0852 77.8674C13.311 75.5418 16.4217 70.3091 17.5738 67.9834C18.1498 67.9834 21.606 69.7277 19.3019 74.379C17.6024 77.8096 12.7734 78.2551 10.0852 77.8674Z" fill="white"/>
<path d="M233.585 105.983L159.085 96.9834" stroke="white" stroke-width="1.5" stroke-linecap="round" stroke-linejoin="round"/>
<path d="M252.585 94.9834L171.085 89.4834M251.585 90.4834L175.085 85.4834M251.585 101.983L164.085 93.9834" stroke="white" stroke-width="1.5" stroke-linecap="round" stroke-linejoin="round"/>
<path d="M116.085 95.984C107.102 95.6497 110.12 98.5648 112.356 100.137C111.819 100.654 112.074 101.784 113.1 102.524C115.127 103.987 123.595 107.633 128.431 102.983C130.642 100.858 126.669 97.156 119.085 96.2817" stroke="white" stroke-width="2" stroke-linecap="round"/>
<path d="M106.404 101.591C106.542 101.41 106.876 101.217 107.529 101.275C108.165 101.332 108.956 101.629 109.709 102.201C110.462 102.774 110.958 103.457 111.183 104.055C111.413 104.668 111.317 105.042 111.179 105.224C111.041 105.405 110.706 105.597 110.055 105.539C109.418 105.482 108.627 105.186 107.874 104.613C107.121 104.041 106.625 103.357 106.4 102.759C106.17 102.147 106.266 101.773 106.404 101.591Z" fill="#FF592E" stroke="white" stroke-width="2"/>
<circle cx="48.0852" cy="61.9834" r="7.25" fill="#FF9A42" stroke="black" stroke-width="1.5" stroke-linecap="round" stroke-linejoin="round"/>
<path d="M2.98902 78.9381C0.05776 70.9127 -1.86928 62.3958 9.6818 56.4947L12.8302 60.9834L14.6216 63.5373C15.6087 65.0458 16.5958 66.5544 15.583 68.0457C13.9625 70.4319 13.0487 72.0241 10.0488 71.9984L7.5489 71.977C5.55241 71.5598 4.34519 76.283 2.98902 78.9381Z" fill="#FF5B2E"/>
<path d="M10.0852 77.8674C13.311 75.5418 16.4217 70.3091 17.5738 67.9834C18.1498 67.9834 21.606 69.7277 19.3019 74.379C17.6024 77.8096 12.7734 78.2551 10.0852 77.8674Z" fill="#FF5B2E" stroke="white" stroke-width="1.5" stroke-linejoin="round"/>
<path d="M9.6818 56.4947C-1.86928 62.3958 0.05776 70.9127 2.98902 78.9381C4.34519 76.283 5.55241 71.5598 7.5489 71.977L10.0488 71.9984C13.0487 72.0241 13.9625 70.4319 15.583 68.0457C16.5958 66.5544 15.6087 65.0458 14.6216 63.5373L12.8302 60.9834" stroke="white" stroke-width="1.5" stroke-linecap="round" stroke-linejoin="round"/>
<path d="M140.085 65.4834C139.419 66.8168 137.285 69.2834 134.085 68.4834C130.885 67.6834 115.752 62.8168 108.585 60.4834" stroke="white" stroke-width="1.5" stroke-linecap="round" stroke-linejoin="round"/>
<path d="M175.585 83.4834C175.419 84.4834 174.785 86.5834 173.585 86.9834C172.085 87.4834 165.085 79.4834 155.085 75.9834C147.085 73.1834 143.085 72.1501 142.085 71.9834" stroke="white" stroke-width="1.5" stroke-linecap="round" stroke-linejoin="round"/>
<path d="M172.085 86.6961C171.919 87.9336 170.585 90.3159 166.585 89.9446C161.585 89.4805 154.585 87.1601 147.085 82.9834" stroke="white" stroke-width="1.5" stroke-linecap="round" stroke-linejoin="round"/>
<path d="M168.585 89.9834C168.585 90.9834 168.185 92.9834 166.585 92.9834C164.585 92.9834 152.585 92.4834 133.585 79.9834" stroke="white" stroke-width="1.5" stroke-linecap="round" stroke-linejoin="round"/>
<path d="M164.069 92.9834C164.409 95.3397 159.487 99.5221 137.085 97.4015" stroke="white" stroke-width="1.5" stroke-linecap="round" stroke-linejoin="round"/>
<path d="M189.585 112.983L164.585 110.483C159.252 113.65 143.985 120.683 125.585 123.483C107.185 126.283 94.2518 118.983 90.0852 114.983C90.7518 116.483 91.9852 119.883 91.5852 121.483C91.0852 123.483 88.5852 122.483 84.5852 113.983C82.1732 108.858 81.0338 105.187 80.29 101.983M189.585 112.983L224.585 117.483C228.965 115.937 231.368 112.787 232.567 109.983C233.23 108.435 233.526 106.992 233.585 105.983L248.585 107.483C250.585 107.483 251.419 103.483 251.585 101.983C255.585 99.5833 253.919 96.3166 252.585 94.9833C253.385 89.7833 248.919 87.15 246.585 86.4833C244.47 86.3589 238.815 86.1021 231.4 85.7824M189.585 112.983L187.585 114.983M231.4 85.7824C231.652 87.2216 228.628 88.516 227.085 88.9833C232.685 89.3833 232.419 92.15 231.585 93.4833C232.419 93.9833 233.985 95.3833 233.585 96.9833C233.185 98.5833 229.085 99.65 227.085 99.9833C231.485 102.383 221.919 103.65 216.585 103.983C210.585 103.983 203.419 107.65 200.585 109.483L156.085 104.983C155.919 104.483 155.085 103.283 153.085 102.483C151.085 101.683 150.585 103.483 150.585 104.483C138.985 101.283 130.419 106.483 127.585 109.483C123.419 108.317 114.785 106.383 113.585 107.983C112.385 109.583 117.085 111.983 119.585 112.983C103.185 114.183 85.7518 102.15 79.0852 95.9833C78.2574 95.1436 77.4423 94.3292 76.6506 93.5382C74.5985 91.488 72.6952 89.5864 71.0852 87.7561C69.6522 86.127 68.4516 84.0543 67.5852 82.4833C66.6953 80.8699 65.9966 79.3284 65.4697 77.857C59.894 62.2864 71.5586 55.2506 81.5852 53.1713M231.4 85.7824C217.165 85.1685 196.445 84.3224 181.832 83.734M109.585 144.983C133.585 141.317 182.785 130.183 187.585 114.983M109.585 144.983L173.585 148.483M109.585 144.983C71.5852 165.483 52.5852 153.983 48.0852 148.483C47.4935 147.638 46.9605 146.805 46.4792 145.983C41.2672 137.083 42.1148 129.474 39.9787 121.234C39.812 124.401 39.0787 130.334 37.4787 128.734C35.8787 127.134 34.4787 114.401 33.9787 108.234C33.4787 110.734 32.0787 115.434 30.4787 114.234C29.4912 113.494 29.535 110.81 29.5956 107.1C29.6244 105.343 29.6569 103.355 29.5852 101.234C29.7519 98.4993 29.7852 91.9742 28.5852 87.7561C27.7549 84.8374 25.401 81.034 21.0852 76.9834M187.585 114.983C195.252 120.817 211.785 134.283 216.585 141.483C216.919 142.65 217.285 145.283 216.085 146.483M216.085 146.483C208.439 147.55 200.576 148.13 193.585 148.415M216.085 146.483C214.885 147.683 244.585 172.317 259.585 184.483C260.252 185.483 261.085 188.183 259.085 190.983L272.085 201.983C272.419 202.15 272.985 202.983 272.585 204.983L264.085 222.983L244.085 208.483M193.585 148.415C191.498 148.5 189.488 148.559 187.585 148.597M193.585 148.415C220.785 168.76 247.252 189.271 257.085 196.983C259.75 199.074 255.085 202.483 253.585 201.983C228.785 188.383 199.252 160.726 187.585 148.597M187.585 148.597C181.523 148.717 176.545 148.624 173.585 148.483M173.585 148.483C174.072 149.002 174.572 149.538 175.085 150.091M244.085 208.483L175.085 150.091M244.085 208.483C243.426 208.91 242.564 209.414 241.585 209.917M175.085 150.091C178.75 154.042 183.056 158.834 187.626 163.983M140.085 65.4833C136.585 61.4833 133.628 59.312 130.085 57.9833C121.201 54.6518 107.932 54.0608 96.9737 53.5727C94.1531 53.4471 88.4855 53.3282 86.0852 53.1713M187.626 163.983C205.851 184.517 228.286 210.739 231.085 211.983C233.847 213.211 238.356 211.573 241.585 209.917M187.626 163.983L241.585 209.917M9.17603 53.9835C9.24534 41.6187 16.4386 27.481 47.5852 17.4833C51.5852 16.1994 65.5852 8.98332 75.5852 0.983322C77.0852 0.316655 79.4852 0.683321 77.0852 7.48332C75.3189 12.4878 70.2849 18.2505 67.0852 21.7421C65.9372 22.9949 65.0253 23.9553 64.5852 24.4834C66.0852 23.8168 74.2852 19.4835 77.0852 17.4834C79.8852 15.4833 79.9185 18.3167 79.5852 19.9834C79.299 21.8437 74.8603 27.5124 71.5852 30.3445C71.0457 30.811 70.5378 31.2006 70.0852 31.4834C72.2519 33.6501 77.2852 40.1834 80.0852 48.9834M177.585 83.5634C176.898 83.5359 176.231 83.5091 175.585 83.4833C170.592 77.0634 152.893 69.5293 142.585 65.9834M177.585 83.5634C178.929 83.6173 180.349 83.6743 181.832 83.734M177.585 83.5634L181.832 83.734" stroke="white" stroke-width="1.5" stroke-linecap="round" stroke-linejoin="round"/>
<circle cx="26.5852" cy="54.4834" r="6" fill="black" stroke="white" stroke-linecap="round" stroke-linejoin="round"/>
<circle cx="26.5852" cy="54.4834" r="2" fill="white" stroke="white" stroke-linecap="round" stroke-linejoin="round"/>
<circle cx="11.5852" cy="58.4834" r="0.75" fill="white" stroke="black" stroke-width="1.5" stroke-linecap="round" stroke-linejoin="round"/>
<circle cx="48.0852" cy="60.9834" r="7.25" fill="#FF5C2F" stroke="white" stroke-width="1.5" stroke-linecap="round" stroke-linejoin="round"/>
<path d="M166.585 110.483L145.085 107.983" stroke="white" stroke-linecap="round" stroke-linejoin="round"/>
<circle cx="162.085" cy="67.9834" r="2" fill="white"/>
<circle cx="157.585" cy="165.483" r="1.5" fill="white"/>
<circle cx="94.5852" cy="37.4834" r="1.5" fill="white"/>
<circle cx="108.085" cy="47.9834" r="1" fill="white"/>
<circle cx="167.585" cy="66.4834" r="1.5" fill="white"/>
<circle cx="11.5852" cy="58.4834" r="1.25" fill="black" stroke="white" stroke-width="0.5" stroke-linecap="round" stroke-linejoin="round"/>
<defs>
<linearGradient id="paint0_linear_273_599" x1="140.906" y1="0.750031" x2="140.906" y2="222.983" gradientUnits="userSpaceOnUse">
<stop offset="0.125" stop-color="#FFF79F"/>
<stop offset="0.552885" stop-color="#FFCC23"/>
<stop offset="1" stop-color="#FFB759"/>
</linearGradient>
<linearGradient id="paint1_linear_273_599" x1="140.906" y1="0.750031" x2="140.906" y2="222.983" gradientUnits="userSpaceOnUse">
<stop offset="0.125" stop-color="#FFF79F"/>
<stop offset="0.552885" stop-color="#FFCC23"/>
<stop offset="1" stop-color="#FFB759"/>
</linearGradient>
<linearGradient id="paint2_linear_273_599" x1="140.906" y1="0.750031" x2="140.906" y2="222.983" gradientUnits="userSpaceOnUse">
<stop offset="0.125" stop-color="#FFF79F"/>
<stop offset="0.552885" stop-color="#FFCC23"/>
<stop offset="1" stop-color="#FFB759"/>
</linearGradient>
<linearGradient id="paint3_linear_273_599" x1="140.906" y1="0.750031" x2="140.906" y2="222.983" gradientUnits="userSpaceOnUse">
<stop offset="0.125" stop-color="#FFF79F"/>
<stop offset="0.552885" stop-color="#FFCC23"/>
<stop offset="1" stop-color="#FFB759"/>
</linearGradient>
<linearGradient id="paint4_linear_273_599" x1="140.906" y1="0.750031" x2="140.906" y2="222.983" gradientUnits="userSpaceOnUse">
<stop offset="0.125" stop-color="#FFF79F"/>
<stop offset="0.552885" stop-color="#FFCC23"/>
<stop offset="1" stop-color="#FFB759"/>
</linearGradient>
<linearGradient id="paint5_linear_273_599" x1="140.906" y1="0.750031" x2="140.906" y2="222.983" gradientUnits="userSpaceOnUse">
<stop offset="0.125" stop-color="#FFF79F"/>
<stop offset="0.552885" stop-color="#FFCC23"/>
<stop offset="1" stop-color="#FFB759"/>
</linearGradient>
</defs>
</svg>
