<svg width="221" height="61" viewBox="0 0 221 61" fill="none" xmlns="http://www.w3.org/2000/svg">
<path d="M3.06 60.9C2.18 60.9 1.44 60.6 0.839999 60C0.279999 59.44 -1.3113e-06 58.72 -1.3113e-06 57.84V30.48C0.0399988 27.32 0.779999 24.48 2.22 21.96C3.66 19.44 5.62 17.46 8.1 16.02C10.58 14.54 13.38 13.8 16.5 13.8C19.66 13.8 22.48 14.54 24.96 16.02C27.44 17.46 29.4 19.44 30.84 21.96C32.32 24.48 33.06 27.32 33.06 30.48C33.06 33.64 32.38 36.48 31.02 39C29.7 41.48 27.88 43.46 25.56 44.94C23.24 46.38 20.62 47.1 17.7 47.1C15.34 47.1 13.16 46.62 11.16 45.66C9.2 44.66 7.52 43.32 6.12 41.64V57.84C6.12 58.72 5.84 59.44 5.28 60C4.72 60.6 3.98 60.9 3.06 60.9ZM16.5 41.7C18.54 41.7 20.36 41.22 21.96 40.26C23.56 39.26 24.82 37.92 25.74 36.24C26.7 34.52 27.18 32.6 27.18 30.48C27.18 28.32 26.7 26.4 25.74 24.72C24.82 23 23.56 21.66 21.96 20.7C20.36 19.7 18.54 19.2 16.5 19.2C14.5 19.2 12.68 19.7 11.04 20.7C9.44 21.66 8.18 23 7.26 24.72C6.34 26.4 5.88 28.32 5.88 30.48C5.88 32.6 6.34 34.52 7.26 36.24C8.18 37.92 9.44 39.26 11.04 40.26C12.68 41.22 14.5 41.7 16.5 41.7ZM43.4275 47.82C42.3075 47.82 41.3275 47.42 40.4875 46.62C39.6875 45.78 39.2875 44.8 39.2875 43.68C39.2875 42.52 39.6875 41.54 40.4875 40.74C41.3275 39.9 42.3075 39.48 43.4275 39.48C44.5875 39.48 45.5675 39.9 46.3675 40.74C47.1675 41.54 47.5675 42.52 47.5675 43.68C47.5675 44.8 47.1675 45.78 46.3675 46.62C45.5675 47.42 44.5875 47.82 43.4275 47.82ZM70.9044 47.1C67.5844 47.1 64.6244 46.4 62.0244 45C59.4644 43.56 57.4444 41.6 55.9644 39.12C54.5244 36.6 53.8044 33.72 53.8044 30.48C53.8044 27.2 54.4844 24.32 55.8444 21.84C57.2444 19.32 59.1644 17.36 61.6044 15.96C64.0444 14.52 66.8444 13.8 70.0044 13.8C73.1244 13.8 75.8044 14.5 78.0444 15.9C80.2844 17.26 81.9844 19.16 83.1444 21.6C84.3444 24 84.9444 26.78 84.9444 29.94C84.9444 30.7 84.6844 31.34 84.1644 31.86C83.6444 32.34 82.9844 32.58 82.1844 32.58H58.0044V27.78H82.0044L79.5444 29.46C79.5044 27.46 79.1044 25.68 78.3444 24.12C77.5844 22.52 76.5044 21.26 75.1044 20.34C73.7044 19.42 72.0044 18.96 70.0044 18.96C67.7244 18.96 65.7644 19.46 64.1244 20.46C62.5244 21.46 61.3044 22.84 60.4644 24.6C59.6244 26.32 59.2044 28.28 59.2044 30.48C59.2044 32.68 59.7044 34.64 60.7044 36.36C61.7044 38.08 63.0844 39.44 64.8444 40.44C66.6044 41.44 68.6244 41.94 70.9044 41.94C72.1444 41.94 73.4044 41.72 74.6844 41.28C76.0044 40.8 77.0644 40.26 77.8644 39.66C78.4644 39.22 79.1044 39 79.7844 39C80.5044 38.96 81.1244 39.16 81.6444 39.6C82.3244 40.2 82.6844 40.86 82.7244 41.58C82.7644 42.3 82.4444 42.92 81.7644 43.44C80.4044 44.52 78.7044 45.4 76.6644 46.08C74.6644 46.76 72.7444 47.1 70.9044 47.1ZM93.99 47.82C92.87 47.82 91.89 47.42 91.05 46.62C90.25 45.78 89.85 44.8 89.85 43.68C89.85 42.52 90.25 41.54 91.05 40.74C91.89 39.9 92.87 39.48 93.99 39.48C95.15 39.48 96.13 39.9 96.93 40.74C97.73 41.54 98.13 42.52 98.13 43.68C98.13 44.8 97.73 45.78 96.93 46.62C96.13 47.42 95.15 47.82 93.99 47.82ZM108.987 26.34C108.987 23.94 109.567 21.8 110.727 19.92C111.927 18 113.527 16.48 115.527 15.36C117.527 14.24 119.727 13.68 122.127 13.68C124.527 13.68 126.307 14.08 127.467 14.88C128.667 15.64 129.127 16.56 128.847 17.64C128.727 18.2 128.487 18.64 128.127 18.96C127.807 19.24 127.427 19.42 126.987 19.5C126.547 19.58 126.067 19.56 125.547 19.44C122.987 18.92 120.687 18.88 118.647 19.32C116.607 19.76 114.987 20.58 113.787 21.78C112.627 22.98 112.047 24.5 112.047 26.34H108.987ZM109.047 46.86C108.087 46.86 107.347 46.62 106.827 46.14C106.307 45.62 106.047 44.86 106.047 43.86V17.04C106.047 16.08 106.307 15.34 106.827 14.82C107.347 14.3 108.087 14.04 109.047 14.04C110.047 14.04 110.787 14.3 111.267 14.82C111.787 15.3 112.047 16.04 112.047 17.04V43.86C112.047 44.82 111.787 45.56 111.267 46.08C110.787 46.6 110.047 46.86 109.047 46.86ZM128.674 47.82C127.554 47.82 126.574 47.42 125.734 46.62C124.934 45.78 124.534 44.8 124.534 43.68C124.534 42.52 124.934 41.54 125.734 40.74C126.574 39.9 127.554 39.48 128.674 39.48C129.834 39.48 130.814 39.9 131.614 40.74C132.414 41.54 132.814 42.52 132.814 43.68C132.814 44.8 132.414 45.78 131.614 46.62C130.814 47.42 129.834 47.82 128.674 47.82ZM155.61 47.1C152.41 47.1 149.55 46.38 147.03 44.94C144.55 43.46 142.59 41.48 141.15 39C139.75 36.48 139.05 33.64 139.05 30.48C139.05 27.24 139.75 24.36 141.15 21.84C142.55 19.32 144.47 17.36 146.91 15.96C149.35 14.52 152.15 13.8 155.31 13.8C157.67 13.8 159.83 14.26 161.79 15.18C163.75 16.06 165.51 17.4 167.07 19.2C167.63 19.84 167.83 20.5 167.67 21.18C167.51 21.86 167.07 22.46 166.35 22.98C165.79 23.38 165.17 23.52 164.49 23.4C163.81 23.24 163.19 22.88 162.63 22.32C160.67 20.24 158.23 19.2 155.31 19.2C153.27 19.2 151.47 19.68 149.91 20.64C148.35 21.56 147.13 22.86 146.25 24.54C145.37 26.22 144.93 28.2 144.93 30.48C144.93 32.64 145.37 34.56 146.25 36.24C147.17 37.92 148.43 39.26 150.03 40.26C151.63 41.22 153.49 41.7 155.61 41.7C157.01 41.7 158.23 41.54 159.27 41.22C160.35 40.86 161.33 40.32 162.21 39.6C162.85 39.08 163.51 38.8 164.19 38.76C164.87 38.68 165.47 38.86 165.99 39.3C166.67 39.86 167.05 40.5 167.13 41.22C167.21 41.9 166.97 42.52 166.41 43.08C163.53 45.76 159.93 47.1 155.61 47.1ZM178.006 47.82C176.886 47.82 175.906 47.42 175.066 46.62C174.266 45.78 173.866 44.8 173.866 43.68C173.866 42.52 174.266 41.54 175.066 40.74C175.906 39.9 176.886 39.48 178.006 39.48C179.166 39.48 180.146 39.9 180.946 40.74C181.746 41.54 182.146 42.52 182.146 43.68C182.146 44.8 181.746 45.78 180.946 46.62C180.146 47.42 179.166 47.82 178.006 47.82ZM193.122 34.92C192.242 34.92 191.502 34.64 190.902 34.08C190.342 33.48 190.062 32.74 190.062 31.86V3.05998C190.062 2.13998 190.342 1.39998 190.902 0.839984C191.502 0.279984 192.242 -1.57356e-05 193.122 -1.57356e-05C194.042 -1.57356e-05 194.782 0.279984 195.342 0.839984C195.902 1.39998 196.182 2.13998 196.182 3.05998V31.86C196.182 32.74 195.902 33.48 195.342 34.08C194.782 34.64 194.042 34.92 193.122 34.92ZM217.783 46.92C216.903 46.92 216.163 46.64 215.563 46.08C215.003 45.48 214.723 44.74 214.723 43.86V29.1C214.723 26.82 214.303 24.96 213.462 23.52C212.622 22.08 211.482 21.02 210.042 20.34C208.642 19.62 207.022 19.26 205.182 19.26C203.502 19.26 201.982 19.6 200.622 20.28C199.262 20.96 198.182 21.88 197.382 23.04C196.582 24.16 196.182 25.46 196.182 26.94H192.402C192.402 24.42 193.002 22.18 194.202 20.22C195.442 18.22 197.122 16.64 199.242 15.48C201.362 14.32 203.742 13.74 206.382 13.74C209.142 13.74 211.602 14.34 213.762 15.54C215.962 16.7 217.683 18.42 218.923 20.7C220.203 22.98 220.843 25.78 220.843 29.1V43.86C220.843 44.74 220.543 45.48 219.942 46.08C219.382 46.64 218.662 46.92 217.783 46.92ZM193.122 46.92C192.242 46.92 191.502 46.64 190.902 46.08C190.342 45.48 190.062 44.74 190.062 43.86V17.1C190.062 16.18 190.342 15.44 190.902 14.88C191.502 14.32 192.242 14.04 193.122 14.04C194.042 14.04 194.782 14.32 195.342 14.88C195.902 15.44 196.182 16.18 196.182 17.1V43.86C196.182 44.74 195.902 45.48 195.342 46.08C194.782 46.64 194.042 46.92 193.122 46.92Z" fill="url(#paint0_linear_271_3592)"/>
<defs>
<linearGradient id="paint0_linear_271_3592" x1="-5.89024" y1="27.86" x2="226.11" y2="27.86" gradientUnits="userSpaceOnUse">
<stop stop-color="#FF9A42"/>
<stop offset="1" stop-color="#FF7C2A"/>
</linearGradient>
</defs>
</svg>
