<svg width="393" height="165" viewBox="0 0 393 165" fill="none" xmlns="http://www.w3.org/2000/svg">
<path d="M68.0978 102.512C92.2717 91.5692 110.402 92.5486 116.446 94.4061L124 115.683C121.482 114.332 112.316 112.34 95.7971 115.176C79.2783 118.013 16.3925 145.741 -12.9855 159.25L-15 131.387C2.62681 126.321 43.9239 113.454 68.0978 102.512Z" fill="#4C2101" stroke="white" stroke-width="2.5" stroke-linecap="round" stroke-linejoin="round"/>
<path d="M179.5 68.75C191.5 73.25 203 74.75 216.023 72.25L304.5 44.75L396.023 1.25L398.523 28.75L298 69.75L256 80.25C240 82.25 199.523 91.95 187.523 98.75C175.523 105.55 152.667 108.917 142.5 109.75L142.023 110.25C137.523 118.083 133 139.25 107 136.25C90.7081 134.37 72.5235 156.417 64.5235 163.25C69.5235 154.917 83.6235 137.25 100.023 133.25C81.7958 134.895 47.9708 132.685 34.5235 114.722C31.6175 110.84 29.6632 106.223 29.0235 100.75C33.5235 110.75 42.5 122.75 66.5235 125.25C77.2363 126.365 86.0235 126.75 88.0227 126.75C93.3563 126.417 105.2 125.95 110 126.75C116 127.75 123.523 114.25 119.023 114.25L114.523 94.25C121.023 96.25 171.447 87.3602 167.523 83.25C157.5 72.75 146 73.25 139.523 72.75C136.37 72.5066 98.1057 72.4762 72.0235 65.25C63 62.75 47.5 57.25 37.5001 50.25C25 40.75 23.8562 29.75 24.0227 25.25C29.023 47.75 64.6894 57.5833 88.0227 59.75L136.5 62.25C154.977 62.25 173.122 66.3582 179.5 68.75Z" fill="#4C2101" stroke="white" stroke-width="2.5" stroke-linecap="round" stroke-linejoin="round"/>
<path d="M266.5 74.2502C272.5 71.4502 277 74.0835 278.5 75.7502C280 75.7502 298 107.25 304.5 116.25C309.7 123.45 329 141.917 338 150.25C332.333 146.75 317.2 136.55 302 123.75C286.8 110.95 269.667 93.4167 263 86.25C261.667 83.4167 260.5 77.0502 266.5 74.2502Z" fill="#4C2101"/>
</svg>
