<svg width="36" height="55" viewBox="0 0 36 55" fill="none" xmlns="http://www.w3.org/2000/svg">
<path d="M10.867 47.8275L7.75012 53.0111C8.09159 53.0797 11.5274 51.5738 12.5325 50.8446C13.8998 49.8526 14.3776 46.5499 15.0348 43.2794C13.4829 45.6018 11.9986 46.1844 10.867 47.8275Z" fill="black" stroke="white" stroke-linecap="round" stroke-linejoin="round"/>
<path d="M29.1124 31.6354L34.3771 17.4352C32.9052 16.8894 28.0932 15.418 20.6204 13.898C13.1477 12.378 4.25987 30.9316 0.750054 40.3984C7.96334 34.7361 22.6638 32.1971 29.1124 31.6354Z" fill="black" stroke="white" stroke-width="1.5" stroke-linecap="round" stroke-linejoin="round"/>
<path d="M23.2501 16.75L34.2501 17.25C34.2501 12.05 31.5834 6.08336 30.2501 3.75003L15.7501 0.750031C17.7501 3.55003 21.5834 12.5834 23.2501 16.75Z" fill="black" stroke="white" stroke-width="1.5" stroke-linecap="round" stroke-linejoin="round"/>
</svg>
