<svg preserveAspectRatio="none" width="100%" height="100%" overflow="visible" style="display: block;" viewBox="0 0 20.0089 20.0089" fill="none" xmlns="http://www.w3.org/2000/svg">
<g id="Group 1707481775">
<circle id="Ellipse 176" cx="10.0045" cy="10.0045" r="7.07422" transform="rotate(45 10.0045 10.0045)" fill="var(--fill-0, #6B6B6B)"/>
<circle id="Ellipse 177" cx="8.54156" cy="11.4673" r="3" transform="rotate(45 8.54156 11.4673)" stroke="var(--stroke-0, white)"/>
<path id="Vector 1237" d="M13.7681 6.59375C13.7681 6.31761 13.5443 6.09375 13.2681 6.09375H8.76813C8.49199 6.09375 8.26813 6.31761 8.26813 6.59375C8.26813 6.86989 8.49199 7.09375 8.76813 7.09375H12.7681V11.0937C12.7681 11.3699 12.992 11.5937 13.2681 11.5937C13.5443 11.5937 13.7681 11.3699 13.7681 11.0937V6.59375ZM10.4425 8.71231C10.2472 8.90757 10.2472 9.22415 10.4425 9.41941C10.6377 9.61468 10.9543 9.61468 11.1496 9.41941L10.796 9.06586L10.4425 8.71231ZM13.2681 6.59375L12.9146 6.2402L10.4425 8.71231L10.796 9.06586L11.1496 9.41941L13.6217 6.9473L13.2681 6.59375Z" fill="var(--stroke-0, white)"/>
</g>
</svg>
