<svg width="120" height="120" viewBox="0 0 120 120" fill="none" xmlns="http://www.w3.org/2000/svg">
<g id="Group 1707481861">
<circle id="Ellipse 161" cx="60" cy="60" r="60" fill="#D9D9D9"/>
<g id="Group 1707481863">
<rect id="Rectangle 32954" x="30.3219" y="45.0295" width="12.0361" height="21.3677" rx="6.01807" fill="#676E81"/>
<rect id="Rectangle 32955" x="77.6384" y="45.0295" width="12.0361" height="21.3677" rx="6.01807" fill="#676E81"/>
<path id="Vector 1471" d="M59.6648 77.5514L56.9328 74.8194C55.8584 73.745 54.0257 74.2138 53.5991 75.672L52.6355 78.9656C52.0084 80.7932 53.3957 84.6575 61.079 84.6575C68.778 84.6575 69.8015 80.9326 69.3618 78.9656L68.508 75.7792C68.1096 74.2921 66.2506 73.794 65.162 74.8826L62.4932 77.5514C61.7122 78.3324 60.4458 78.3324 59.6648 77.5514Z" fill="#676E81"/>
<g id="Subtract">
</g>
<path id="Ellipse 231" d="M60.978 54.8887C55.9911 54.8887 51.9484 58.9314 51.9484 63.9183C52.2009 67.3085 54.1068 70.5369 59.6494 75.7121C60.3968 76.4099 61.5583 76.4092 62.3055 75.7111C67.9742 70.4146 69.8101 67.2571 70.0076 63.9183C70.0076 58.9314 65.965 54.8887 60.978 54.8887Z" fill="#676E81"/>
<path id="Vector 1472" d="M55.8166 57.7015L57.3048 56.5371C57.6704 56.2511 58.1945 56.5742 58.1031 57.0293L57.8956 58.0634C57.8524 58.2784 57.6741 58.4402 57.4559 58.4624L56.1753 58.5927C55.6766 58.6435 55.4218 58.0104 55.8166 57.7015Z" fill="#D9D9D9"/>
<path id="Vector 1473" d="M66.1448 57.7015L64.6566 56.5371C64.2911 56.2511 63.767 56.5742 63.8583 57.0293L64.0659 58.0634C64.109 58.2784 64.2873 58.4402 64.5055 58.4624L65.7861 58.5927C66.2848 58.6435 66.5396 58.0104 66.1448 57.7015Z" fill="#D9D9D9"/>
</g>
</g>
</svg>
