<svg width="63" height="63" viewBox="0 0 63 63" fill="none" xmlns="http://www.w3.org/2000/svg">
<circle cx="31.32" cy="31.32" r="31.32" fill="#D9D9D9"/>
<rect x="15.8281" y="23.5059" width="6.28287" height="11.154" rx="3.14143" fill="#676E81"/>
<rect x="40.5273" y="23.5059" width="6.28287" height="11.154" rx="3.14143" fill="#676E81"/>
<path d="M31.1762 40.5134L29.6665 39.0037C29.1293 38.4665 28.213 38.7009 27.9996 39.43L27.4759 41.2205C27.1485 42.1745 27.8726 44.1917 31.8833 44.1917C35.9022 44.1917 36.4365 42.2473 36.207 41.2205L35.7416 39.4836C35.5423 38.74 34.6129 38.491 34.0685 39.0353L32.5904 40.5134C32.1999 40.9039 31.5668 40.9039 31.1762 40.5134Z" fill="#676E81"/>
<path d="M31.8306 28.6523C29.2275 28.6523 27.1172 30.7626 27.1172 33.3658C27.239 35.0022 28.0989 36.5663 30.5151 38.9285C31.2463 39.6433 32.414 39.6422 33.1457 38.928C35.6193 36.5134 36.4486 34.9802 36.5441 33.3658C36.5441 30.7626 34.4338 28.6523 31.8306 28.6523Z" fill="#676E81"/>
<path d="M28.9701 30.2507L30.043 29.4112C30.1893 29.2968 30.3989 29.4261 30.3624 29.6081L30.2127 30.3537C30.1955 30.4397 30.1241 30.5044 30.0369 30.5133L29.1136 30.6072C28.9141 30.6275 28.8122 30.3743 28.9701 30.2507Z" fill="#D9D9D9"/>
<path d="M34.694 30.2507L33.621 29.4112C33.4748 29.2968 33.2651 29.4261 33.3017 29.6081L33.4513 30.3537C33.4686 30.4397 33.5399 30.5044 33.6272 30.5133L34.5505 30.6072C34.75 30.6275 34.8519 30.3743 34.694 30.2507Z" fill="#D9D9D9"/>
</svg>
